<svg width="44" height="16" viewBox="0 0 44 16" fill="none" xmlns="http://www.w3.org/2000/svg">
<path d="M42.8333 6.7666H4.33333L10 2.09993C10.2222 1.87771 10.3611 1.59993 10.4167 1.2666C10.4722 0.933268 10.3889 0.65549 10.1667 0.433268C9.94444 0.211045 9.69444 0.0721569 9.41667 0.0166016C9.13889 -0.0389547 8.83333 0.0443792 8.5 0.266602L0.5 7.09993C0.166667 7.32216 0 7.59993 0 7.93327C0 8.2666 0.166667 8.54438 0.5 8.7666L8.5 15.5999C8.72222 15.711 9 15.7666 9.33333 15.7666C9.66667 15.7666 9.94444 15.6555 10.1667 15.4333C10.3889 15.211 10.4722 14.9333 10.4167 14.5999C10.3611 14.2666 10.2222 13.9888 10 13.7666L4.33333 9.09993H42.8333C43.1667 9.09993 43.4444 8.98882 43.6667 8.7666C43.8889 8.54438 44 8.2666 44 7.93327C44 7.59993 43.8889 7.32216 43.6667 7.09993C43.4444 6.87771 43.1667 6.7666 42.8333 6.7666Z" fill="#222222"/>
</svg>
