<svg width="20" height="20" viewBox="0 0 20 20" fill="none" xmlns="http://www.w3.org/2000/svg">
<g clip-path="url(#clip0_1_2390)">
<path d="M16.7875 10.7546L10.4936 17.0491C10.3959 17.1468 10.263 17.202 10.1248 17.202H3.38389C2.91942 17.202 2.68657 16.6404 3.01524 16.3123C4.94014 14.3856 9.3243 9.99957 9.3243 9.99957C9.3243 9.99957 4.93953 5.61481 3.01524 3.68808C2.68642 3.36002 2.91942 2.79834 3.38389 2.79834H10.1248C10.2632 2.79834 10.3959 2.85358 10.4936 2.95123L13.35 5.80768L16.7875 9.24457C17.2041 9.66174 17.2041 10.3374 16.7875 10.7546Z" fill="black"/>
<path d="M12.8454 10.7546L6.55147 17.0491C6.45381 17.1468 6.32106 17.202 6.18281 17.202H3.38389C2.91942 17.202 2.68657 16.6404 3.01524 16.3123C4.94014 14.3856 9.3243 9.99957 9.3243 9.99957C9.3243 9.99957 4.93953 5.61481 3.01524 3.68808C2.68642 3.36002 2.91942 2.79834 3.38389 2.79834H6.18281C6.32106 2.79834 6.45396 2.85358 6.55162 2.95123L12.8456 9.24442C13.2621 9.66174 13.2621 10.3374 12.8454 10.7546Z" fill="black"/>
<path d="M12.8454 10.7546L6.55149 17.0491C6.45383 17.1468 6.32108 17.202 6.18283 17.202H4.54297C4.68122 17.202 4.81397 17.1468 4.91162 17.0491L11.3876 10.5727C11.8042 10.1554 11.8042 9.84363 11.3876 9.42645L4.91162 2.95123C4.81397 2.85358 4.68122 2.79834 4.54297 2.79834H6.18283C6.32108 2.79834 6.45383 2.85358 6.55149 2.95123L12.8454 9.24457C13.2621 9.66174 13.2621 10.3374 12.8454 10.7546Z" fill="#FFA816"/>
<path d="M16.9947 9.03735L13.5573 5.60046L10.7009 2.74402C10.5492 2.59235 10.3392 2.50537 10.1248 2.50537H3.38395C3.04811 2.50537 2.75971 2.69824 2.63124 3.00861C2.50306 3.31866 2.57081 3.65848 2.80793 3.89514C4.4716 5.56094 8.01713 9.10663 8.91007 9.99957C8.01927 10.8908 4.48289 14.4287 2.80824 16.1049C2.57081 16.342 2.50306 16.6819 2.63124 16.9918C2.75971 17.3021 3.04811 17.495 3.38395 17.495H10.1248C10.3392 17.495 10.5492 17.408 10.7009 17.2563L16.9948 10.9618C17.5246 10.4313 17.5246 9.56805 16.9947 9.03735ZM16.5802 10.5477L10.2864 16.8421C10.2439 16.8846 10.185 16.9091 10.1248 16.9091H3.38395C3.2422 16.9091 3.18635 16.8009 3.17277 16.7678C3.15904 16.7348 3.12226 16.6194 3.22251 16.5193C5.14741 14.5926 9.53157 10.2066 9.53157 10.2066C9.64601 10.0922 9.64601 9.9068 9.53157 9.79236C9.48762 9.74857 5.12483 5.38562 3.22221 3.48071C3.12226 3.38092 3.15904 3.26556 3.17277 3.23245C3.18635 3.19934 3.2422 3.09131 3.38395 3.09131H10.1248C10.185 3.09131 10.2439 3.11572 10.2864 3.15829L13.143 6.01489L16.5802 9.45148C16.882 9.75375 16.882 10.2454 16.5802 10.5477Z" fill="white"/>
</g>
<defs>
<clipPath id="clip0_1_2390">
<rect width="20" height="20" fill="white"/>
</clipPath>
</defs>
</svg>
