<svg width="44" height="16" viewBox="0 0 44 16" fill="none" xmlns="http://www.w3.org/2000/svg">
<path d="M43.5 7.09993L35.5 0.266602C35.1667 0.0443792 34.8611 -0.0389547 34.5833 0.0166016C34.3056 0.0721569 34.0556 0.211045 33.8333 0.433268C33.6111 0.65549 33.5278 0.933268 33.5833 1.2666C33.6389 1.59993 33.7778 1.87771 34 2.09993L39.6667 6.7666H1.16667C0.833333 6.7666 0.555556 6.87771 0.333333 7.09993C0.111111 7.32216 0 7.59993 0 7.93327C0 8.2666 0.111111 8.54438 0.333333 8.7666C0.555556 8.98882 0.833333 9.09993 1.16667 9.09993H39.6667L34 13.7666C33.7778 13.9888 33.6389 14.2666 33.5833 14.5999C33.5278 14.9333 33.6111 15.211 33.8333 15.4333C34.0556 15.6555 34.3333 15.7666 34.6667 15.7666C35 15.7666 35.2778 15.711 35.5 15.5999L43.5 8.7666C43.8333 8.54438 44 8.2666 44 7.93327C44 7.59993 43.8333 7.32216 43.5 7.09993Z" fill="#222222"/>
</svg>
