<svg width="21" height="21" viewBox="0 0 21 21" fill="none" xmlns="http://www.w3.org/2000/svg">
<path d="M20.0667 6.74993V9.88327C20.0667 10.1055 19.9889 10.2833 19.8333 10.4166C19.6778 10.5499 19.4889 10.6166 19.2667 10.6166H18.7333L18.4 13.5499C18.4 13.7722 18.3222 13.9499 18.1667 14.0833C18.0111 14.2166 17.8444 14.2833 17.6667 14.2833H17.5333C17.3556 14.2388 17.2 14.1388 17.0667 13.9833C16.9333 13.8277 16.8667 13.6388 16.8667 13.4166L17.2667 9.74993C17.3111 9.57216 17.4 9.4166 17.5333 9.28327C17.6667 9.14993 17.8444 9.08327 18.0667 9.08327H18.4667V7.54993H1.6V9.08327H14.9333C15.1556 9.08327 15.3444 9.16105 15.5 9.3166C15.6556 9.47216 15.7333 9.66105 15.7333 9.88327C15.7333 10.1055 15.6556 10.2833 15.5 10.4166C15.3444 10.5499 15.1556 10.6166 14.9333 10.6166H2.93333L3.66667 17.0833C3.71111 17.4833 3.88889 17.8166 4.2 18.0833C4.51111 18.3499 4.86667 18.4833 5.26667 18.4833H14.9333C15.3333 18.4833 15.6778 18.3499 15.9667 18.0833C16.2556 17.8166 16.4222 17.4833 16.4667 17.0833C16.4667 16.861 16.5556 16.6833 16.7333 16.5499C16.9111 16.4166 17.1111 16.361 17.3333 16.3833C17.5556 16.4055 17.7333 16.5055 17.8667 16.6833C18 16.861 18.0444 17.0388 18 17.2166C17.9111 18.0166 17.5778 18.6833 17 19.2166C16.4222 19.7499 15.7333 20.0166 14.9333 20.0166H5.26667C4.46667 20.0166 3.76667 19.7499 3.16667 19.2166C2.56667 18.6833 2.22222 18.0388 2.13333 17.2833L1.33333 10.6166H0.8C0.577778 10.6166 0.388889 10.5499 0.233333 10.4166C0.0777778 10.2833 0 10.1055 0 9.88327V6.74993C0 6.52771 0.0777778 6.33882 0.233333 6.18327C0.388889 6.02771 0.577778 5.94993 0.8 5.94993H3.6L7.73333 0.349934C7.86667 0.172155 8.03333 0.0610447 8.23333 0.0165997C8.43333 -0.0278435 8.62222 0.0165997 8.8 0.149935C8.97778 0.283268 9.08889 0.461044 9.13333 0.683268C9.17778 0.905489 9.13333 1.10549 9 1.28327L5.53333 5.94993H14.6L11.1333 1.28327C11 1.10549 10.9556 0.905489 11 0.683268C11.0444 0.461044 11.1444 0.283268 11.3 0.149935C11.4556 0.0165997 11.6444 -0.0278435 11.8667 0.0165997C12.0889 0.0610447 12.2667 0.172155 12.4 0.349934L16.5333 5.94993H19.2667C19.4889 5.94993 19.6778 6.02771 19.8333 6.18327C19.9889 6.33882 20.0667 6.52771 20.0667 6.74993ZM9.26667 13.0166V16.0833C9.26667 16.3055 9.34445 16.4944 9.5 16.6499C9.65556 16.8055 9.83333 16.8833 10.0333 16.8833C10.2333 16.8833 10.4111 16.8055 10.5667 16.6499C10.7222 16.4944 10.8 16.3055 10.8 16.0833V13.0166C10.8 12.7944 10.7222 12.6055 10.5667 12.4499C10.4111 12.2944 10.2333 12.2166 10.0333 12.2166C9.83333 12.2166 9.65556 12.2944 9.5 12.4499C9.34445 12.6055 9.26667 12.7944 9.26667 13.0166ZM12.4 13.0166V16.0833C12.4 16.3055 12.4778 16.4944 12.6333 16.6499C12.7889 16.8055 12.9667 16.8833 13.1667 16.8833C13.3667 16.8833 13.5444 16.8055 13.7 16.6499C13.8556 16.4944 13.9333 16.3055 13.9333 16.0833V13.0166C13.9333 12.7944 13.8556 12.6055 13.7 12.4499C13.5444 12.2944 13.3667 12.2166 13.1667 12.2166C12.9667 12.2166 12.7889 12.2944 12.6333 12.4499C12.4778 12.6055 12.4 12.7944 12.4 13.0166ZM6.13333 13.0166V16.0833C6.13333 16.3055 6.21111 16.4944 6.36667 16.6499C6.52222 16.8055 6.7 16.8833 6.9 16.8833C7.1 16.8833 7.27778 16.8055 7.43333 16.6499C7.58889 16.4944 7.66667 16.3055 7.66667 16.0833V13.0166C7.66667 12.7944 7.58889 12.6055 7.43333 12.4499C7.27778 12.2944 7.1 12.2166 6.9 12.2166C6.7 12.2166 6.52222 12.2944 6.36667 12.4499C6.21111 12.6055 6.13333 12.7944 6.13333 13.0166Z" fill="white"/>
</svg>
